<?xml version="1.0" encoding="UTF-8" standalone="no"?>
<svg
   xml:space="preserve"
   width="200px"
   height="250px"
   viewBox="0 0 200 250"
   version="1.1"
   id="svg25"
   sodipodi:docname="dk.svg"
   inkscape:version="1.1.1 (eb90963e84, 2021-10-02)"
   xmlns:inkscape="http://www.inkscape.org/namespaces/inkscape"
   xmlns:sodipodi="http://sodipodi.sourceforge.net/DTD/sodipodi-0.dtd"
   xmlns="http://www.w3.org/2000/svg"
   xmlns:svg="http://www.w3.org/2000/svg"><defs
   id="defs29" /><sodipodi:namedview
   id="namedview27"
   pagecolor="#ffffff"
   bordercolor="#666666"
   borderopacity="1.0"
   inkscape:pageshadow="2"
   inkscape:pageopacity="0.0"
   inkscape:pagecheckerboard="0"
   showgrid="false"
   inkscape:zoom="2.088"
   inkscape:cx="99.856322"
   inkscape:cy="125"
   inkscape:window-width="1336"
   inkscape:window-height="698"
   inkscape:window-x="0"
   inkscape:window-y="0"
   inkscape:window-maximized="1"
   inkscape:current-layer="svg25" />

 <g
   id="main-bg"
   style="fill:none">
  <path
   className="fil0"
   id="test"
   d="M40.373 18.048l119.254 0c2.995,0 5.718,1.224 7.691,3.197 1.973,1.972 3.197,4.695 3.197,7.69l0 192.129c0,2.996 -1.224,5.719 -3.197,7.691 -1.973,1.973 -4.696,3.198 -7.691,3.198l-119.254 0c-2.996,0 -5.718,-1.225 -7.691,-3.198 -1.973,-1.972 -3.197,-4.695 -3.197,-7.691l0 -192.129c0,-2.995 1.224,-5.717 3.197,-7.69 1.973,-1.973 4.695,-3.197 7.691,-3.197z"
   style="fill:none" />
 </g>
 <g
   id="k">
  <path
   className="fil1"
   d="M121.719 84.523c-1.012,1.23 -2.339,2.828 -3.974,4.784 -1.281,1.533 -2.747,3.273 -4.396,5.219 -1.453,1.715 -3.047,3.576 -4.783,5.584 -1.54,1.781 -3.199,3.682 -4.979,5.701 -1.683,1.912 -3.364,3.808 -5.038,5.687 -1.644,1.845 -3.312,3.707 -5.009,5.588l-2.121 2.346c1.042,1 2.127,2.075 3.258,3.225 2.164,2.199 4.126,4.276 5.888,6.23 2.034,2.255 3.958,4.476 5.77,6.661 1.87,2.255 3.709,4.563 5.513,6.924 1.633,2.136 3.352,4.488 5.155,7.055 1.801,2.565 3.38,4.95 4.732,7.149 1.359,2.212 2.672,4.54 3.936,6.98l7.706 14.876 -33.747 0 -2.66 -4.622c-0.979,-1.702 -2.143,-3.578 -3.491,-5.626 -1.348,-2.046 -2.691,-3.974 -4.026,-5.778 -1.292,-1.745 -2.777,-3.645 -4.455,-5.697 -1.621,-1.983 -3.186,-3.811 -4.692,-5.481 -1.518,-1.684 -3.146,-3.408 -4.882,-5.169l-0.479 -0.484 0 32.857 -29.351 0 0 -110.633 29.351 0 0 26.41c1.181,-1.324 2.363,-2.658 3.545,-4 1.533,-1.742 3.092,-3.525 4.673,-5.346 1.453,-1.674 2.923,-3.382 4.407,-5.118 1.224,-1.431 2.502,-2.958 3.827,-4.571 1.354,-1.648 2.405,-2.955 3.154,-3.918l2.688 -3.457 38.146 0 -13.666 16.624z"
   id="path4" />
 </g>
 <g
   id="bg-top-bottom">
  <path
   className="fil1"
   d="M46.443 156.891l107.68 0c0.258,0 0.484,0.129 0.64,0.335 0.129,0.17 0.207,0.393 0.207,0.63l0 57.73c0,0.237 -0.08,0.462 -0.207,0.629 -0.155,0.206 -0.382,0.335 -0.64,0.335l-107.68 0c-0.258,0 -0.485,-0.127 -0.642,-0.335 -0.127,-0.167 -0.207,-0.392 -0.207,-0.629l0 -57.73c0,-0.237 0.079,-0.462 0.207,-0.63 0.156,-0.206 0.383,-0.335 0.642,-0.335z"
   id="path7" />
  <path
   className="fil1"
   d="M46.441 34.322l107.683 0c0.257,0 0.483,0.075 0.64,0.196 0.126,0.097 0.206,0.229 0.206,0.368l0 33.673c0,0.137 -0.08,0.27 -0.206,0.368 -0.157,0.121 -0.383,0.196 -0.64,0.196l-107.683 0c-0.256,0 -0.483,-0.075 -0.64,-0.196 -0.128,-0.099 -0.207,-0.231 -0.207,-0.368l0 -33.673c0,-0.139 0.08,-0.271 0.207,-0.368 0.157,-0.122 0.384,-0.196 0.64,-0.196z"
   id="path9" />
 </g>
 <g
   id="main-stroke">
  <path
   className="fil1"
   d="M40.373 18.048l119.254 0c2.995,0 5.718,1.224 7.691,3.197 1.973,1.972 3.197,4.695 3.197,7.69l0 192.129c0,2.996 -1.224,5.719 -3.197,7.691 -1.973,1.973 -4.696,3.198 -7.691,3.198l-119.254 0c-2.996,0 -5.718,-1.225 -7.691,-3.198 -1.973,-1.972 -3.197,-4.695 -3.197,-7.691l0 -192.129c0,-2.995 1.224,-5.717 3.197,-7.69 1.973,-1.973 4.695,-3.197 7.691,-3.197zm119.254 1.889l-119.254 0c-2.474,0 -4.724,1.013 -6.355,2.645 -1.631,1.631 -2.644,3.88 -2.644,6.353l0 192.129c0,2.474 1.013,4.723 2.644,6.355 1.632,1.631 3.881,2.644 6.355,2.644l119.254 0c2.473,0 4.723,-1.013 6.354,-2.644 1.631,-1.631 2.645,-3.881 2.645,-6.355l0 -192.129c0,-2.473 -1.013,-4.723 -2.644,-6.354 -1.632,-1.631 -3.882,-2.644 -6.355,-2.644z"
   id="path12" />
 </g>
 <g
   id="text-white"
   style="fill:#ffffff">
  <path
   className="fil0"
   d="M58.413 191.516c-1.506,0 -2.894,-0.389 -4.167,-1.16 -1.26,-0.778 -2.264,-1.811 -3.014,-3.099 -0.757,-1.295 -1.132,-2.717 -1.132,-4.266l0 -1.946c0,-0.149 0.07,-0.227 0.205,-0.227l4.769 0c0.113,0 0.17,0.078 0.17,0.227l0 1.946c0,0.926 0.311,1.726 0.927,2.398 0.622,0.672 1.372,1.005 2.242,1.005 0.885,0 1.634,-0.34 2.258,-1.026 0.622,-0.686 0.933,-1.479 0.933,-2.377 0,-1.033 -0.679,-1.939 -2.03,-2.71 -0.219,-0.142 -0.51,-0.312 -0.864,-0.51 -0.346,-0.198 -0.771,-0.431 -1.252,-0.693 -0.481,-0.262 -0.955,-0.523 -1.408,-0.779 -0.46,-0.254 -0.899,-0.502 -1.33,-0.735 -1.542,-0.913 -2.696,-2.059 -3.446,-3.432 -0.757,-1.373 -1.132,-2.922 -1.132,-4.634 0,-1.571 0.389,-3 1.16,-4.267 0.772,-1.259 1.784,-2.256 3.036,-3 1.252,-0.736 2.611,-1.103 4.075,-1.103 1.507,0 2.887,0.367 4.147,1.117 1.259,0.758 2.264,1.769 3.013,3.029 0.751,1.252 1.132,2.667 1.132,4.224l0 3.481c0,0.113 -0.056,0.17 -0.169,0.17l-4.769 0c-0.106,0 -0.163,-0.057 -0.163,-0.17l-0.042 -3.481c0,-0.991 -0.311,-1.805 -0.934,-2.427 -0.623,-0.615 -1.359,-0.927 -2.215,-0.927 -0.87,0 -1.62,0.332 -2.242,0.991 -0.616,0.665 -0.927,1.45 -0.927,2.363 0,0.927 0.191,1.698 0.586,2.32 0.397,0.624 1.119,1.217 2.166,1.784 0.113,0.056 0.368,0.198 0.771,0.417 0.397,0.219 0.842,0.467 1.337,0.736 0.488,0.269 0.934,0.509 1.338,0.722 0.396,0.219 0.636,0.346 0.721,0.389 1.408,0.785 2.526,1.754 3.347,2.9 0.821,1.147 1.238,2.555 1.238,4.225 0,1.62 -0.375,3.07 -1.125,4.358 -0.757,1.281 -1.769,2.3 -3.021,3.042 -1.259,0.75 -2.653,1.125 -4.189,1.125zm19.486 -0.417l-4.79 0c-0.127,0 -0.184,-0.071 -0.184,-0.205l0 -24.212 -5.519 0c-0.134,0 -0.205,-0.071 -0.205,-0.206l0.043 -4.747c0,-0.113 0.056,-0.17 0.162,-0.17l16.132 0c0.148,0 0.226,0.057 0.226,0.17l0 4.747c0,0.135 -0.056,0.206 -0.169,0.206l-5.576 0 0.043 24.212c0,0.134 -0.057,0.205 -0.163,0.205zm15.728 0.417c-1.493,0 -2.872,-0.389 -4.146,-1.16 -1.274,-0.778 -2.285,-1.819 -3.035,-3.12 -0.757,-1.309 -1.132,-2.739 -1.132,-4.281l0.084 -21.226c0,-0.113 0.057,-0.17 0.163,-0.17l4.769 0c0.113,0 0.163,0.057 0.163,0.17l0 21.226c0,0.948 0.304,1.762 0.913,2.434 0.608,0.672 1.351,1.005 2.221,1.005 0.913,0 1.67,-0.333 2.278,-1.005 0.609,-0.672 0.913,-1.486 0.913,-2.434l0 -21.226c0,-0.113 0.057,-0.17 0.163,-0.17l4.769 0c0.113,0 0.17,0.057 0.17,0.17l0.077 21.226c0,1.556 -0.368,2.993 -1.118,4.309 -0.757,1.302 -1.768,2.335 -3.028,3.099 -1.252,0.764 -2.66,1.153 -4.224,1.153zm19.528 -0.46l-7.606 0.043c-0.141,0 -0.212,-0.071 -0.212,-0.205l0.085 -29.165c0,-0.113 0.056,-0.17 0.163,-0.17l7.945 -0.042c1.571,-0.043 2.993,0.318 4.267,1.083 1.288,0.756 2.313,1.782 3.077,3.077 0.771,1.288 1.154,2.717 1.154,4.281l0 12.183c0,1.635 -0.397,3.128 -1.182,4.479 -0.807,1.344 -1.868,2.406 -3.191,3.205 -1.33,0.793 -2.83,1.203 -4.5,1.231zm0.375 -24.459l-2.964 0.043 -0.043 19.237 2.632 0c1.047,0 1.932,-0.368 2.653,-1.104 0.715,-0.728 1.076,-1.606 1.076,-2.632l0 -12.226c0,-0.898 -0.332,-1.683 -0.991,-2.356 -0.665,-0.665 -1.457,-0.99 -2.363,-0.962zm16.846 24.502l-4.803 0c-0.142,0 -0.213,-0.071 -0.213,-0.205l0.043 -29.165c0,-0.113 0.056,-0.17 0.17,-0.17l4.762 0c0.112,0 0.169,0.057 0.169,0.17l0.043 29.165c0,0.134 -0.057,0.205 -0.171,0.205zm11.76 0.417c-1.507,0 -2.894,-0.389 -4.167,-1.16 -1.26,-0.778 -2.272,-1.811 -3.036,-3.099 -0.771,-1.295 -1.153,-2.717 -1.153,-4.266l0.043 -13.451c0,-1.578 0.382,-2.993 1.138,-4.245 0.744,-1.274 1.756,-2.292 3.029,-3.064 1.266,-0.764 2.653,-1.146 4.146,-1.146 1.543,0 2.936,0.382 4.167,1.139 1.239,0.757 2.236,1.776 2.993,3.057 0.75,1.28 1.132,2.695 1.132,4.259l0.036 13.451c0,1.549 -0.368,2.964 -1.118,4.252 -0.757,1.302 -1.769,2.335 -3.028,3.113 -1.253,0.771 -2.654,1.16 -4.182,1.16zm0 -5.122c0.856,0 1.599,-0.347 2.236,-1.047 0.637,-0.701 0.955,-1.479 0.955,-2.356l-0.043 -13.451c0,-0.941 -0.297,-1.733 -0.891,-2.384 -0.594,-0.651 -1.344,-0.976 -2.257,-0.976 -0.87,0 -1.62,0.318 -2.243,0.955 -0.623,0.637 -0.934,1.436 -0.934,2.405l0 13.451c0,0.926 0.311,1.726 0.934,2.398 0.623,0.672 1.373,1.005 2.243,1.005z"
   id="path15"
   style="fill:#ffffff" />
  <path
   className="fil0"
   d="M55.256 212.356c-0.936,0 -1.778,-0.234 -2.528,-0.7 -0.759,-0.461 -1.368,-1.086 -1.825,-1.867 -0.461,-0.785 -0.69,-1.661 -0.69,-2.632l0 -8.2c0,-0.945 0.233,-1.803 0.695,-2.58 0.457,-0.781 1.065,-1.406 1.833,-1.876 0.768,-0.466 1.605,-0.699 2.515,-0.699 0.953,0 1.812,0.229 2.58,0.682 0.763,0.461 1.371,1.082 1.824,1.859 0.449,0.772 0.678,1.643 0.678,2.614l0 1.186c0,0.069 -0.043,0.104 -0.13,0.104l-2.903 0c-0.069,0 -0.103,-0.035 -0.103,-0.104l0 -0.984c0,-0.655 -0.186,-1.199 -0.557,-1.63 -0.371,-0.431 -0.832,-0.643 -1.389,-0.643 -0.496,0 -0.94,0.203 -1.328,0.617 -0.389,0.414 -0.579,0.897 -0.579,1.454l0 8.2c0,0.566 0.186,1.053 0.566,1.463 0.379,0.41 0.828,0.612 1.341,0.612 0.557,0 1.018,-0.198 1.389,-0.599 0.371,-0.402 0.557,-0.893 0.557,-1.476l0 -1.272 -1.808 0c-0.09,0 -0.138,-0.043 -0.138,-0.13l0 -2.894c0,-0.082 0.048,-0.125 0.138,-0.125l4.84 0c0.069,0 0.104,0.043 0.104,0.125l0 4.296c0,0.971 -0.229,1.847 -0.686,2.632 -0.462,0.781 -1.075,1.406 -1.829,1.867 -0.76,0.466 -1.614,0.7 -2.567,0.7zm10.603 -0.255l-2.929 0c-0.069,0 -0.104,-0.043 -0.104,-0.125l0.052 -17.782c0,-0.069 0.035,-0.103 0.099,-0.103l5.233 0c0.936,0 1.794,0.228 2.58,0.682 0.785,0.457 1.41,1.065 1.876,1.833 0.466,0.768 0.703,1.635 0.703,2.606 0,0.629 -0.099,1.203 -0.293,1.716 -0.194,0.514 -0.419,0.949 -0.673,1.303 -0.259,0.354 -0.492,0.613 -0.703,0.785 0.936,1.036 1.402,2.252 1.402,3.65l0.026 5.31c0,0.082 -0.044,0.125 -0.126,0.125l-2.933 0c-0.069,0 -0.099,-0.026 -0.099,-0.078l0 -5.357c0,-0.621 -0.22,-1.161 -0.66,-1.618 -0.436,-0.453 -0.975,-0.682 -1.618,-0.682l-1.703 0 -0.027 7.61c0,0.082 -0.034,0.125 -0.103,0.125zm2.351 -14.913l-2.221 0 0 4.068 2.221 0c0.53,0 1.005,-0.198 1.423,-0.591 0.419,-0.397 0.626,-0.88 0.626,-1.453 0,-0.548 -0.203,-1.023 -0.608,-1.424 -0.402,-0.402 -0.885,-0.6 -1.441,-0.6zm6.893 14.788l3.209 -17.782c0.018,-0.069 0.061,-0.103 0.13,-0.103l3.753 0c0.065,0 0.107,0.034 0.125,0.103l3.084 17.782c0.009,0.082 -0.025,0.125 -0.103,0.125l-2.869 0c-0.082,0 -0.13,-0.043 -0.138,-0.125l-0.276 -1.898 -3.529 0 -0.276 1.898c-0.009,0.082 -0.052,0.125 -0.125,0.125l-2.881 0c-0.07,0 -0.104,-0.043 -0.104,-0.125zm5.336 -11.932l-0.155 -0.962 -0.112 0.962 -1.165 7.269 2.493 0 -1.061 -7.269zm10.288 12.057l-2.903 0c-0.087,0 -0.13,-0.043 -0.13,-0.125l0.052 -17.782c0,-0.069 0.035,-0.103 0.099,-0.103l8.292 0c0.086,0 0.129,0.034 0.129,0.103l0 2.917c0,0.069 -0.035,0.103 -0.104,0.103l-5.305 0 0 4.016 5.305 0c0.069,0 0.104,0.043 0.104,0.13l0.022 2.929c0,0.069 -0.039,0.103 -0.126,0.103l-5.305 0 0 7.584c0,0.082 -0.044,0.125 -0.13,0.125zm11.591 0l-2.929 0c-0.087,0 -0.13,-0.043 -0.13,-0.125l0.026 -17.782c0,-0.069 0.035,-0.103 0.104,-0.103l2.903 0c0.069,0 0.103,0.034 0.103,0.103l0.027 17.782c0,0.082 -0.035,0.125 -0.104,0.125zm7.816 0.255c-0.936,0 -1.79,-0.238 -2.566,-0.708 -0.768,-0.475 -1.376,-1.108 -1.825,-1.902 -0.453,-0.798 -0.677,-1.687 -0.677,-2.662l0.025 -8.075c0,-0.962 0.221,-1.829 0.656,-2.606 0.44,-0.781 1.044,-1.411 1.816,-1.889 0.768,-0.475 1.627,-0.712 2.571,-0.712 0.958,0 1.816,0.233 2.567,0.695 0.755,0.461 1.359,1.086 1.812,1.876 0.449,0.789 0.677,1.665 0.677,2.636l0 1.186c0,0.069 -0.034,0.104 -0.104,0.104l-2.907 0c-0.064,0 -0.099,-0.035 -0.099,-0.104l0 -1.186c0,-0.574 -0.186,-1.066 -0.557,-1.48 -0.371,-0.414 -0.832,-0.621 -1.389,-0.621 -0.616,0 -1.087,0.211 -1.415,0.634 -0.327,0.423 -0.496,0.91 -0.496,1.467l0 8.075c0,0.63 0.186,1.147 0.557,1.549 0.371,0.401 0.824,0.599 1.354,0.599 0.557,0 1.018,-0.22 1.389,-0.664 0.371,-0.44 0.557,-0.936 0.557,-1.484l0 -1.199c0,-0.069 0.035,-0.104 0.099,-0.104l2.933 0c0.069,0 0.104,0.035 0.104,0.104l0 1.199c0,0.966 -0.229,1.855 -0.686,2.653 -0.461,0.794 -1.074,1.428 -1.829,1.903 -0.759,0.474 -1.613,0.716 -2.567,0.716zm16.587 -0.255l-9.659 0c-0.082,0 -0.125,-0.043 -0.125,-0.125l0.026 -2.821 6.341 -12.118 -6.001 0c-0.077,0 -0.116,-0.034 -0.116,-0.103l0 -2.718c0,-0.082 0.039,-0.125 0.116,-0.125l9.366 0c0.082,0 0.124,0.043 0.124,0.125l0 2.795 -6.306 12.057 6.234 0c0.064,0 0.099,0.048 0.099,0.139l0.025 2.769c0,0.082 -0.042,0.125 -0.124,0.125zm5.232 0l-2.593 0c-0.134,0 -0.203,-0.06 -0.203,-0.177l-0.026 -17.63c0,-0.134 0.069,-0.203 0.203,-0.203l2.338 0 4.374 10.198 -0.125 -9.995c0,-0.134 0.074,-0.203 0.225,-0.203l2.567 0c0.099,0 0.15,0.069 0.15,0.203l0.026 17.656c0,0.1 -0.043,0.151 -0.125,0.151l-2.278 0 -4.485 -9.529 0.189 9.326c0,0.134 -0.078,0.203 -0.237,0.203zm18.325 0l-8.364 0c-0.07,0 -0.104,-0.043 -0.104,-0.125l0.025 -17.782c0,-0.069 0.035,-0.103 0.104,-0.103l8.313 0c0.069,0 0.103,0.043 0.103,0.125l0 2.895c0,0.069 -0.034,0.103 -0.103,0.103l-5.307 0 0 4.042 5.307 0c0.069,0 0.103,0.035 0.103,0.104l0.026 2.929c0,0.069 -0.034,0.103 -0.103,0.103l-5.333 0 0 4.525 5.333 0c0.069,0 0.103,0.039 0.103,0.126l0 2.959c0,0.065 -0.034,0.099 -0.103,0.099z"
   id="path17"
   style="fill:#ffffff" />
  <path
   className="fil0"
   d="M57.405 65.491l-7.091 0.04c-0.132,0 -0.198,-0.066 -0.198,-0.192l0.08 -27.188c0,-0.105 0.053,-0.158 0.152,-0.158l7.407 -0.04c1.464,-0.039 2.79,0.297 3.977,1.009 1.2,0.706 2.156,1.663 2.869,2.87 0.719,1.2 1.076,2.533 1.076,3.99l0 11.359c0,1.523 -0.37,2.915 -1.102,4.175 -0.753,1.253 -1.742,2.243 -2.975,2.988 -1.24,0.738 -2.638,1.121 -4.195,1.147zm0.35 -22.802l-2.764 0.04 -0.04 17.934 2.454 0c0.976,0 1.8,-0.343 2.473,-1.029 0.667,-0.679 1.003,-1.497 1.003,-2.453l0 -11.398c0,-0.838 -0.31,-1.57 -0.924,-2.197 -0.619,-0.62 -1.358,-0.923 -2.202,-0.897zm24.734 22.842l-14.768 0c-0.126,0 -0.191,-0.066 -0.191,-0.192l0.039 -4.313 9.696 -18.528 -9.175 0c-0.119,0 -0.178,-0.053 -0.178,-0.158l0 -4.156c0,-0.125 0.059,-0.191 0.178,-0.191l14.32 0c0.125,0 0.191,0.066 0.191,0.191l0 4.274 -9.643 18.436 9.531 0c0.099,0 0.152,0.073 0.152,0.211l0.039 4.234c0,0.126 -0.065,0.192 -0.191,0.192zm7.335 0l-4.479 0c-0.132,0 -0.198,-0.066 -0.198,-0.192l0.04 -27.188c0,-0.105 0.053,-0.158 0.158,-0.158l4.439 0c0.106,0 0.159,0.053 0.159,0.158l0.039 27.188c0,0.126 -0.053,0.192 -0.158,0.192zm12.084 0l-4.796 0c-0.118,0 -0.178,-0.066 -0.19,-0.192l-4.677 -27.188c-0.027,-0.105 0.013,-0.158 0.112,-0.158l4.446 0c0.105,0 0.171,0.053 0.191,0.158l2.533 17.875 2.612 -17.875c0.026,-0.105 0.099,-0.158 0.23,-0.158l3.575 0c0.106,0 0.166,0.053 0.192,0.158l2.572 17.875 2.573 -17.875c0.019,-0.105 0.086,-0.158 0.191,-0.158l4.406 0c0.125,0 0.178,0.053 0.152,0.158l-4.716 27.188c-0.014,0.047 -0.046,0.093 -0.113,0.133l-0.079 0.059 -4.788 0c-0.079,0 -0.145,-0.066 -0.198,-0.192l-2.025 -14.207 -2.012 14.207c-0.013,0.126 -0.079,0.192 -0.191,0.192zm20.751 0l-3.965 0c-0.204,0 -0.31,-0.093 -0.31,-0.271l-0.039 -26.957c0,-0.205 0.106,-0.31 0.31,-0.31l3.575 0 6.688 15.592 -0.191 -15.282c0,-0.205 0.112,-0.31 0.343,-0.31l3.925 0c0.151,0 0.23,0.105 0.23,0.31l0.04 26.997c0,0.152 -0.066,0.231 -0.191,0.231l-3.483 0 -6.86 -14.57 0.291 14.26c0,0.205 -0.119,0.31 -0.363,0.31zm22.294 0l-4.538 0c-0.092,0 -0.138,-0.053 -0.138,-0.152l0.039 -11.252 -5.296 -15.976c-0.02,-0.105 0.013,-0.158 0.118,-0.158l4.406 0c0.132,0 0.205,0.053 0.231,0.158l2.922 10.646 2.975 -10.646c0.027,-0.105 0.086,-0.158 0.191,-0.158l4.446 0c0.099,0 0.139,0.053 0.112,0.158l-5.349 15.824 0.04 11.404c0,0.099 -0.053,0.152 -0.159,0.152z"
   id="path19"
   style="fill:#ffffff" />
 </g>
 <g
   id="ot"
   style="fill:#666666">
  <path
   className="fil2"
   d="M128.604 119.71c0.616,2.048 1.092,4.026 1.428,5.93 0.349,1.976 0.552,3.866 0.609,5.67 0.057,1.833 -0.014,3.566 -0.214,5.195l-0.008 -0.003c-0.204,1.65 -0.543,3.217 -1.017,4.699 -0.484,1.513 -1.086,2.876 -1.805,4.09 -0.725,1.222 -1.584,2.325 -2.574,3.305 -0.978,0.967 -2.062,1.777 -3.251,2.424 -1.168,0.636 -2.435,1.115 -3.8,1.433 -1.352,0.315 -2.723,0.451 -4.107,0.407 -1.405,-0.045 -2.802,-0.274 -4.189,-0.687 -1.429,-0.426 -2.795,-1.007 -4.094,-1.743 -1.315,-0.745 -2.606,-1.668 -3.872,-2.767 -1.233,-1.072 -2.407,-2.285 -3.517,-3.637l-0.007 -0.017c-1.112,-1.357 -2.149,-2.825 -3.105,-4.404 -0.965,-1.591 -1.851,-3.32 -2.658,-5.188 -0.769,-1.78 -1.463,-3.698 -2.08,-5.748 -1.221,-4.06 -1.895,-7.908 -2.018,-11.539 -0.062,-1.841 0.006,-3.585 0.204,-5.229 0.205,-1.698 0.54,-3.272 1.002,-4.719l0.013 -0.005c0.484,-1.512 1.087,-2.875 1.806,-4.09 0.724,-1.221 1.583,-2.324 2.574,-3.305 0.977,-0.968 2.063,-1.776 3.251,-2.424 1.167,-0.636 2.436,-1.115 3.799,-1.432 2.75,-0.641 5.517,-0.548 8.296,0.279 1.431,0.426 2.796,1.008 4.095,1.745 1.314,0.744 2.606,1.666 3.872,2.766 1.221,1.061 2.398,2.284 3.527,3.666 1.11,1.358 2.151,2.843 3.122,4.452 0.972,1.614 1.857,3.342 2.653,5.183 0.768,1.772 1.456,3.67 2.065,5.693zm-12.924 3.051c-0.65,-2.162 -1.393,-4.019 -2.225,-5.568 -0.758,-1.41 -1.596,-2.571 -2.511,-3.482 -0.804,-0.801 -1.619,-1.345 -2.443,-1.629 -0.843,-0.291 -1.745,-0.324 -2.705,-0.101 -0.954,0.223 -1.718,0.646 -2.289,1.269 -0.552,0.601 -0.954,1.429 -1.203,2.48 -0.283,1.191 -0.358,2.557 -0.225,4.095 0.148,1.723 0.544,3.654 1.187,5.793 0.651,2.162 1.393,4.018 2.226,5.567 0.757,1.41 1.595,2.572 2.51,3.484 0.804,0.8 1.62,1.344 2.444,1.628 0.843,0.29 1.745,0.324 2.704,0.101 0.954,-0.223 1.718,-0.647 2.291,-1.27 0.551,-0.601 0.952,-1.428 1.201,-2.479 0.284,-1.192 0.358,-2.557 0.226,-4.095 -0.148,-1.723 -0.545,-3.655 -1.188,-5.793zm18.894 -33.457l12.765 -2.976 4.725 15.705 -12.765 2.976 4.953 16.466c0.307,1.021 0.607,1.918 0.895,2.688 0.268,0.711 0.537,1.338 0.805,1.879 0.215,0.436 0.427,0.804 0.634,1.104 0.137,0.199 0.259,0.349 0.364,0.447 0.1,0.094 0.187,0.161 0.258,0.199 0.076,0.041 0.174,0.073 0.289,0.095 0.228,0.043 0.475,0.06 0.737,0.05l0.012 -0.005c0.324,-0.011 0.662,-0.059 1.01,-0.14 0.751,-0.175 1.401,-0.386 1.949,-0.632 0.447,-0.199 0.815,-0.425 1.101,-0.672l1.165 -1.005 0.718 -0.647 3.009 -2.77 7.203 14.563 -1.863 2.121c-0.361,0.411 -0.811,0.841 -1.349,1.29 -0.513,0.428 -1.119,0.896 -1.818,1.402 -0.784,0.569 -1.688,1.075 -2.708,1.516 -0.956,0.414 -1.991,0.751 -3.102,1.01 -1.299,0.303 -2.547,0.469 -3.742,0.497 -1.268,0.03 -2.466,-0.097 -3.592,-0.382 -1.175,-0.297 -2.3,-0.757 -3.372,-1.377 -1.112,-0.643 -2.153,-1.443 -3.122,-2.397 -0.963,-0.948 -1.847,-2.011 -2.648,-3.185l-0.007 -0.017c-0.782,-1.147 -1.506,-2.413 -2.169,-3.798 -0.58,-1.211 -1.16,-2.589 -1.739,-4.131 -0.549,-1.459 -1.069,-3.002 -1.556,-4.626l-13.31 -44.242 11.791 -5.891 4.479 14.885z"
   id="path22"
   style="fill:#666666" />
 </g>
</svg>
